<mxfile host="Electron" modified="2023-05-08T16:44:01.051Z" agent="Mozilla/5.0 (X11; Linux x86_64) AppleWebKit/537.36 (KHTML, like Gecko) draw.io/21.2.1 Chrome/112.0.5615.87 Electron/24.1.2 Safari/537.36" etag="vffBzfcUFj85Zdl711Wm" version="21.2.1" type="device">
  <diagram name="Page-1" id="ne3iJcpPgn5pVi59-9CK">
    <mxGraphModel dx="926" dy="576" grid="1" gridSize="10" guides="1" tooltips="1" connect="1" arrows="1" fold="1" page="1" pageScale="1" pageWidth="827" pageHeight="1169" math="0" shadow="0">
      <root>
        <mxCell id="0" />
        <mxCell id="1" parent="0" />
        <mxCell id="V6qY6PHKVeMWkWrZdnzw-1" value="Fundamentals" style="text;html=1;strokeColor=none;fillColor=none;align=center;verticalAlign=middle;whiteSpace=wrap;rounded=0;fontStyle=1;fontFamily=Courier New;fontSize=20;" parent="1" vertex="1">
          <mxGeometry x="275" y="202" width="176" height="30" as="geometry" />
        </mxCell>
        <mxCell id="V6qY6PHKVeMWkWrZdnzw-2" value="" style="curved=1;endArrow=none;html=1;rounded=0;entryX=0.5;entryY=0;entryDx=0;entryDy=0;dashed=1;endFill=0;" parent="1" target="V6qY6PHKVeMWkWrZdnzw-1" edge="1">
          <mxGeometry width="50" height="50" relative="1" as="geometry">
            <mxPoint x="349" y="112" as="sourcePoint" />
            <mxPoint x="338" y="162" as="targetPoint" />
            <Array as="points">
              <mxPoint x="409" y="152" />
              <mxPoint x="299" y="172" />
            </Array>
          </mxGeometry>
        </mxCell>
        <mxCell id="V6qY6PHKVeMWkWrZdnzw-3" value="Matrices &amp;amp; Linear Algebra Fundamentals" style="rounded=1;whiteSpace=wrap;html=1;fontSize=14;fontColor=#ffffff;fillColor=#00648f;shadow=1;strokeColor=default;" parent="1" vertex="1">
          <mxGeometry x="255" y="272" width="216" height="50" as="geometry" />
        </mxCell>
        <mxCell id="V6qY6PHKVeMWkWrZdnzw-21" style="edgeStyle=orthogonalEdgeStyle;orthogonalLoop=1;jettySize=auto;html=1;exitX=1;exitY=0.5;exitDx=0;exitDy=0;entryX=0;entryY=0.5;entryDx=0;entryDy=0;curved=1;dashed=1;" parent="1" source="V6qY6PHKVeMWkWrZdnzw-4" target="V6qY6PHKVeMWkWrZdnzw-19" edge="1">
          <mxGeometry relative="1" as="geometry" />
        </mxCell>
        <mxCell id="V6qY6PHKVeMWkWrZdnzw-22" style="edgeStyle=orthogonalEdgeStyle;orthogonalLoop=1;jettySize=auto;html=1;exitX=1;exitY=0.5;exitDx=0;exitDy=0;entryX=0;entryY=0.5;entryDx=0;entryDy=0;curved=1;dashed=1;" parent="1" source="V6qY6PHKVeMWkWrZdnzw-4" target="V6qY6PHKVeMWkWrZdnzw-18" edge="1">
          <mxGeometry relative="1" as="geometry" />
        </mxCell>
        <mxCell id="V6qY6PHKVeMWkWrZdnzw-23" style="edgeStyle=orthogonalEdgeStyle;orthogonalLoop=1;jettySize=auto;html=1;exitX=1;exitY=0.5;exitDx=0;exitDy=0;entryX=0;entryY=0.5;entryDx=0;entryDy=0;curved=1;dashed=1;" parent="1" source="V6qY6PHKVeMWkWrZdnzw-4" target="V6qY6PHKVeMWkWrZdnzw-20" edge="1">
          <mxGeometry relative="1" as="geometry" />
        </mxCell>
        <mxCell id="V6qY6PHKVeMWkWrZdnzw-4" value="Database Basics" style="rounded=1;whiteSpace=wrap;html=1;fontSize=14;fontColor=#ffffff;fillColor=#00648f;shadow=1;strokeColor=default;" parent="1" vertex="1">
          <mxGeometry x="255" y="332" width="216" height="50" as="geometry" />
        </mxCell>
        <mxCell id="V6qY6PHKVeMWkWrZdnzw-5" value="Tabular Data" style="rounded=1;whiteSpace=wrap;html=1;fontSize=14;fontColor=#ffffff;fillColor=#00648f;shadow=1;strokeColor=default;" parent="1" vertex="1">
          <mxGeometry x="255" y="392" width="216" height="50" as="geometry" />
        </mxCell>
        <mxCell id="V6qY6PHKVeMWkWrZdnzw-6" value="Data Frames &amp;amp; Series" style="rounded=1;whiteSpace=wrap;html=1;fontSize=14;fontColor=#ffffff;fillColor=#00648f;shadow=1;strokeColor=default;" parent="1" vertex="1">
          <mxGeometry x="255" y="452" width="216" height="50" as="geometry" />
        </mxCell>
        <UserObject label="Extract, Transform, &amp;amp; Load (ETL)" link="https://en.wikipedia.org/wiki/Extract,_transform,_load" linkTarget="_blank" id="V6qY6PHKVeMWkWrZdnzw-7">
          <mxCell style="rounded=1;whiteSpace=wrap;html=1;fontSize=14;fontColor=#ffffff;fillColor=#00648f;shadow=1;strokeColor=default;" parent="1" vertex="1">
            <mxGeometry x="255" y="512" width="216" height="50" as="geometry" />
          </mxCell>
        </UserObject>
        <mxCell id="V6qY6PHKVeMWkWrZdnzw-8" value="Reporting vs BI vs Analytics" style="rounded=1;whiteSpace=wrap;html=1;fontSize=14;fontColor=#ffffff;fillColor=#00648f;shadow=1;strokeColor=default;" parent="1" vertex="1">
          <mxGeometry x="255" y="572" width="216" height="50" as="geometry" />
        </mxCell>
        <mxCell id="V6qY6PHKVeMWkWrZdnzw-14" style="edgeStyle=orthogonalEdgeStyle;orthogonalLoop=1;jettySize=auto;html=1;entryX=1;entryY=0.5;entryDx=0;entryDy=0;curved=1;dashed=1;" parent="1" source="V6qY6PHKVeMWkWrZdnzw-9" target="V6qY6PHKVeMWkWrZdnzw-11" edge="1">
          <mxGeometry relative="1" as="geometry" />
        </mxCell>
        <mxCell id="V6qY6PHKVeMWkWrZdnzw-15" style="edgeStyle=orthogonalEdgeStyle;orthogonalLoop=1;jettySize=auto;html=1;exitX=0;exitY=0.5;exitDx=0;exitDy=0;entryX=1;entryY=0.5;entryDx=0;entryDy=0;curved=1;dashed=1;" parent="1" source="V6qY6PHKVeMWkWrZdnzw-9" target="V6qY6PHKVeMWkWrZdnzw-13" edge="1">
          <mxGeometry relative="1" as="geometry" />
        </mxCell>
        <mxCell id="V6qY6PHKVeMWkWrZdnzw-16" style="edgeStyle=orthogonalEdgeStyle;orthogonalLoop=1;jettySize=auto;html=1;exitX=0;exitY=0.5;exitDx=0;exitDy=0;entryX=1;entryY=0.5;entryDx=0;entryDy=0;curved=1;dashed=1;" parent="1" source="V6qY6PHKVeMWkWrZdnzw-9" target="V6qY6PHKVeMWkWrZdnzw-12" edge="1">
          <mxGeometry relative="1" as="geometry" />
        </mxCell>
        <mxCell id="V6qY6PHKVeMWkWrZdnzw-9" value="Data Formats" style="rounded=1;whiteSpace=wrap;html=1;fontSize=14;fontColor=#ffffff;fillColor=#00648f;shadow=1;strokeColor=default;" parent="1" vertex="1">
          <mxGeometry x="255" y="632" width="216" height="50" as="geometry" />
        </mxCell>
        <mxCell id="V6qY6PHKVeMWkWrZdnzw-28" style="edgeStyle=orthogonalEdgeStyle;orthogonalLoop=1;jettySize=auto;html=1;exitX=0.5;exitY=1;exitDx=0;exitDy=0;entryX=0.5;entryY=0;entryDx=0;entryDy=0;curved=1;startArrow=none;startFill=0;endArrow=none;endFill=0;" parent="1" source="V6qY6PHKVeMWkWrZdnzw-10" target="V6qY6PHKVeMWkWrZdnzw-27" edge="1">
          <mxGeometry relative="1" as="geometry" />
        </mxCell>
        <mxCell id="V6qY6PHKVeMWkWrZdnzw-10" value="Regular Expressions (RegEx)" style="rounded=1;whiteSpace=wrap;html=1;fontSize=14;fontColor=#ffffff;fillColor=#00648f;shadow=1;strokeColor=default;" parent="1" vertex="1">
          <mxGeometry x="255" y="692" width="216" height="50" as="geometry" />
        </mxCell>
        <mxCell id="V6qY6PHKVeMWkWrZdnzw-11" value="JSON" style="rounded=1;whiteSpace=wrap;html=1;fontSize=14;fontColor=#ffffff;fillColor=#787878;shadow=1;strokeColor=default;" parent="1" vertex="1">
          <mxGeometry x="80" y="582" width="100" height="40" as="geometry" />
        </mxCell>
        <mxCell id="V6qY6PHKVeMWkWrZdnzw-12" value="XML" style="rounded=1;whiteSpace=wrap;html=1;fontSize=14;fontColor=#ffffff;fillColor=#787878;shadow=1;strokeColor=default;" parent="1" vertex="1">
          <mxGeometry x="80" y="637" width="100" height="40" as="geometry" />
        </mxCell>
        <mxCell id="V6qY6PHKVeMWkWrZdnzw-13" value="CSV" style="rounded=1;whiteSpace=wrap;html=1;fontSize=14;fontColor=#ffffff;fillColor=#787878;shadow=1;strokeColor=default;" parent="1" vertex="1">
          <mxGeometry x="80" y="687" width="100" height="40" as="geometry" />
        </mxCell>
        <mxCell id="V6qY6PHKVeMWkWrZdnzw-18" value="Relational vs Non-Relational Databases" style="rounded=1;whiteSpace=wrap;html=1;fontSize=12;fontColor=#ffffff;fillColor=#787878;shadow=1;strokeColor=default;" parent="1" vertex="1">
          <mxGeometry x="529" y="282" width="230" height="40" as="geometry" />
        </mxCell>
        <mxCell id="V6qY6PHKVeMWkWrZdnzw-19" value="SQL + Joins (Inner, Outer, Cross, Theta Join)" style="rounded=1;whiteSpace=wrap;html=1;fontSize=12;fontColor=#ffffff;fillColor=#787878;shadow=1;strokeColor=default;" parent="1" vertex="1">
          <mxGeometry x="529" y="332" width="230" height="50" as="geometry" />
        </mxCell>
        <mxCell id="V6qY6PHKVeMWkWrZdnzw-20" value="NoSQL" style="rounded=1;whiteSpace=wrap;html=1;fontSize=12;fontColor=#ffffff;fillColor=#787878;shadow=1;strokeColor=default;" parent="1" vertex="1">
          <mxGeometry x="529" y="392" width="230" height="40" as="geometry" />
        </mxCell>
        <mxCell id="V6qY6PHKVeMWkWrZdnzw-24" value="Basics" style="text;html=1;strokeColor=none;fillColor=none;align=center;verticalAlign=middle;whiteSpace=wrap;rounded=0;fontStyle=1;fontFamily=Courier New;fontSize=16;" parent="1" vertex="1">
          <mxGeometry x="255" y="242" width="70" height="24" as="geometry" />
        </mxCell>
        <mxCell id="V6qY6PHKVeMWkWrZdnzw-26" value="" style="endArrow=none;html=1;curved=1;exitX=0.5;exitY=0;exitDx=0;exitDy=0;" parent="1" source="V6qY6PHKVeMWkWrZdnzw-3" target="V6qY6PHKVeMWkWrZdnzw-1" edge="1">
          <mxGeometry width="50" height="50" relative="1" as="geometry">
            <mxPoint x="349" y="282" as="sourcePoint" />
            <mxPoint x="399" y="232" as="targetPoint" />
            <Array as="points">
              <mxPoint x="389" y="252" />
            </Array>
          </mxGeometry>
        </mxCell>
        <mxCell id="V6qY6PHKVeMWkWrZdnzw-27" value="Python Programming" style="text;html=1;strokeColor=none;fillColor=none;align=center;verticalAlign=middle;whiteSpace=wrap;rounded=0;fontStyle=1;fontFamily=Courier New;fontSize=16;" parent="1" vertex="1">
          <mxGeometry x="401" y="827" width="196" height="30" as="geometry" />
        </mxCell>
        <mxCell id="V6qY6PHKVeMWkWrZdnzw-46" style="edgeStyle=orthogonalEdgeStyle;orthogonalLoop=1;jettySize=auto;html=1;exitX=0;exitY=0.5;exitDx=0;exitDy=0;entryX=1;entryY=0.5;entryDx=0;entryDy=0;curved=1;dashed=1;" parent="1" source="V6qY6PHKVeMWkWrZdnzw-29" target="V6qY6PHKVeMWkWrZdnzw-37" edge="1">
          <mxGeometry relative="1" as="geometry" />
        </mxCell>
        <mxCell id="V6qY6PHKVeMWkWrZdnzw-47" style="edgeStyle=orthogonalEdgeStyle;orthogonalLoop=1;jettySize=auto;html=1;exitX=0;exitY=0.5;exitDx=0;exitDy=0;entryX=1;entryY=0.5;entryDx=0;entryDy=0;curved=1;dashed=1;" parent="1" source="V6qY6PHKVeMWkWrZdnzw-29" target="V6qY6PHKVeMWkWrZdnzw-38" edge="1">
          <mxGeometry relative="1" as="geometry" />
        </mxCell>
        <mxCell id="V6qY6PHKVeMWkWrZdnzw-48" style="edgeStyle=orthogonalEdgeStyle;orthogonalLoop=1;jettySize=auto;html=1;exitX=0;exitY=0.5;exitDx=0;exitDy=0;entryX=1;entryY=0.5;entryDx=0;entryDy=0;curved=1;dashed=1;" parent="1" source="V6qY6PHKVeMWkWrZdnzw-29" target="V6qY6PHKVeMWkWrZdnzw-39" edge="1">
          <mxGeometry relative="1" as="geometry" />
        </mxCell>
        <mxCell id="V6qY6PHKVeMWkWrZdnzw-49" style="edgeStyle=orthogonalEdgeStyle;orthogonalLoop=1;jettySize=auto;html=1;exitX=0;exitY=0.5;exitDx=0;exitDy=0;entryX=1;entryY=0.5;entryDx=0;entryDy=0;curved=1;dashed=1;" parent="1" source="V6qY6PHKVeMWkWrZdnzw-29" target="V6qY6PHKVeMWkWrZdnzw-40" edge="1">
          <mxGeometry relative="1" as="geometry" />
        </mxCell>
        <mxCell id="V6qY6PHKVeMWkWrZdnzw-50" style="edgeStyle=orthogonalEdgeStyle;orthogonalLoop=1;jettySize=auto;html=1;exitX=0;exitY=0.5;exitDx=0;exitDy=0;entryX=1;entryY=0.5;entryDx=0;entryDy=0;curved=1;dashed=1;" parent="1" source="V6qY6PHKVeMWkWrZdnzw-29" target="V6qY6PHKVeMWkWrZdnzw-41" edge="1">
          <mxGeometry relative="1" as="geometry" />
        </mxCell>
        <mxCell id="V6qY6PHKVeMWkWrZdnzw-51" style="edgeStyle=orthogonalEdgeStyle;orthogonalLoop=1;jettySize=auto;html=1;exitX=0;exitY=0.5;exitDx=0;exitDy=0;entryX=1;entryY=0.5;entryDx=0;entryDy=0;curved=1;dashed=1;" parent="1" source="V6qY6PHKVeMWkWrZdnzw-29" target="V6qY6PHKVeMWkWrZdnzw-42" edge="1">
          <mxGeometry relative="1" as="geometry" />
        </mxCell>
        <mxCell id="V6qY6PHKVeMWkWrZdnzw-29" value="Python Basics" style="rounded=1;whiteSpace=wrap;html=1;fontSize=14;fontColor=#ffffff;fillColor=#00648f;shadow=1;strokeColor=default;" parent="1" vertex="1">
          <mxGeometry x="391" y="867" width="216" height="40" as="geometry" />
        </mxCell>
        <mxCell id="V6qY6PHKVeMWkWrZdnzw-35" style="edgeStyle=orthogonalEdgeStyle;orthogonalLoop=1;jettySize=auto;html=1;entryX=0;entryY=0.5;entryDx=0;entryDy=0;curved=1;dashed=1;" parent="1" source="V6qY6PHKVeMWkWrZdnzw-30" target="V6qY6PHKVeMWkWrZdnzw-33" edge="1">
          <mxGeometry relative="1" as="geometry" />
        </mxCell>
        <mxCell id="V6qY6PHKVeMWkWrZdnzw-36" style="edgeStyle=orthogonalEdgeStyle;orthogonalLoop=1;jettySize=auto;html=1;exitX=1;exitY=0.5;exitDx=0;exitDy=0;entryX=0;entryY=0.5;entryDx=0;entryDy=0;curved=1;dashed=1;" parent="1" source="V6qY6PHKVeMWkWrZdnzw-30" target="V6qY6PHKVeMWkWrZdnzw-34" edge="1">
          <mxGeometry relative="1" as="geometry" />
        </mxCell>
        <mxCell id="V6qY6PHKVeMWkWrZdnzw-30" value="Important Libraries" style="rounded=1;whiteSpace=wrap;html=1;fontSize=14;fontColor=#ffffff;fillColor=#00648f;shadow=1;strokeColor=default;" parent="1" vertex="1">
          <mxGeometry x="391" y="917" width="216" height="40" as="geometry" />
        </mxCell>
        <mxCell id="V6qY6PHKVeMWkWrZdnzw-31" value="Virtual Environments" style="rounded=1;whiteSpace=wrap;html=1;fontSize=14;fontColor=#ffffff;fillColor=#00648f;shadow=1;strokeColor=default;" parent="1" vertex="1">
          <mxGeometry x="391" y="967" width="216" height="40" as="geometry" />
        </mxCell>
        <mxCell id="d6DQ8E3kw1Y6hHntC6a_-5" style="edgeStyle=orthogonalEdgeStyle;orthogonalLoop=1;jettySize=auto;html=1;exitX=0.5;exitY=1;exitDx=0;exitDy=0;entryX=0.5;entryY=0;entryDx=0;entryDy=0;curved=1;endArrow=none;endFill=0;" edge="1" parent="1" source="V6qY6PHKVeMWkWrZdnzw-32" target="d6DQ8E3kw1Y6hHntC6a_-1">
          <mxGeometry relative="1" as="geometry" />
        </mxCell>
        <mxCell id="V6qY6PHKVeMWkWrZdnzw-32" value="Jupyter Notebooks / Lab" style="rounded=1;whiteSpace=wrap;html=1;fontSize=14;fontColor=#ffffff;fillColor=#00648f;shadow=1;strokeColor=default;" parent="1" vertex="1">
          <mxGeometry x="391" y="1017" width="216" height="40" as="geometry" />
        </mxCell>
        <mxCell id="V6qY6PHKVeMWkWrZdnzw-33" value="Numpy" style="rounded=1;whiteSpace=wrap;html=1;fontSize=14;fontColor=#ffffff;fillColor=#787878;shadow=1;strokeColor=default;" parent="1" vertex="1">
          <mxGeometry x="661" y="897" width="100" height="30" as="geometry" />
        </mxCell>
        <mxCell id="V6qY6PHKVeMWkWrZdnzw-34" value="Pandas" style="rounded=1;whiteSpace=wrap;html=1;fontSize=14;fontColor=#ffffff;fillColor=#787878;shadow=1;strokeColor=default;" parent="1" vertex="1">
          <mxGeometry x="661" y="947" width="100" height="30" as="geometry" />
        </mxCell>
        <mxCell id="V6qY6PHKVeMWkWrZdnzw-37" value="Expressions" style="rounded=1;whiteSpace=wrap;html=1;fontSize=14;fontColor=#ffffff;fillColor=#787878;shadow=1;strokeColor=default;" parent="1" vertex="1">
          <mxGeometry x="66" y="772" width="240" height="30" as="geometry" />
        </mxCell>
        <mxCell id="V6qY6PHKVeMWkWrZdnzw-38" value="Variables" style="rounded=1;whiteSpace=wrap;html=1;fontSize=14;fontColor=#ffffff;fillColor=#787878;shadow=1;strokeColor=default;" parent="1" vertex="1">
          <mxGeometry x="66" y="812" width="240" height="30" as="geometry" />
        </mxCell>
        <mxCell id="V6qY6PHKVeMWkWrZdnzw-39" value="Data Structures" style="rounded=1;whiteSpace=wrap;html=1;fontSize=14;fontColor=#ffffff;fillColor=#787878;shadow=1;strokeColor=default;" parent="1" vertex="1">
          <mxGeometry x="66" y="852" width="240" height="30" as="geometry" />
        </mxCell>
        <mxCell id="V6qY6PHKVeMWkWrZdnzw-40" value="Functions" style="rounded=1;whiteSpace=wrap;html=1;fontSize=14;fontColor=#ffffff;fillColor=#787878;shadow=1;strokeColor=default;" parent="1" vertex="1">
          <mxGeometry x="66" y="892" width="240" height="30" as="geometry" />
        </mxCell>
        <mxCell id="V6qY6PHKVeMWkWrZdnzw-41" value="Install packages (pip)" style="rounded=1;whiteSpace=wrap;html=1;fontSize=14;fontColor=#ffffff;fillColor=#787878;shadow=1;strokeColor=default;" parent="1" vertex="1">
          <mxGeometry x="66" y="932" width="240" height="30" as="geometry" />
        </mxCell>
        <mxCell id="V6qY6PHKVeMWkWrZdnzw-42" value="Code Style (Google Python Style)" style="rounded=1;whiteSpace=wrap;html=1;fontSize=14;fontColor=#ffffff;fillColor=#787878;shadow=1;strokeColor=default;" parent="1" vertex="1">
          <mxGeometry x="66" y="972" width="240" height="30" as="geometry" />
        </mxCell>
        <mxCell id="d6DQ8E3kw1Y6hHntC6a_-1" value="Data Mining" style="rounded=1;whiteSpace=wrap;html=1;fontSize=14;fontColor=#ffffff;fillColor=#00648f;shadow=1;strokeColor=default;" vertex="1" parent="1">
          <mxGeometry x="197" y="1185" width="216" height="40" as="geometry" />
        </mxCell>
        <mxCell id="d6DQ8E3kw1Y6hHntC6a_-2" value="Web Scraping" style="rounded=1;whiteSpace=wrap;html=1;fontSize=14;fontColor=#ffffff;fillColor=#00648f;shadow=1;strokeColor=default;" vertex="1" parent="1">
          <mxGeometry x="197" y="1235" width="216" height="40" as="geometry" />
        </mxCell>
        <mxCell id="d6DQ8E3kw1Y6hHntC6a_-3" value="Awesome Public Datasets" style="rounded=1;whiteSpace=wrap;html=1;fontSize=14;fontColor=#ffffff;fillColor=#00648f;shadow=1;strokeColor=default;" vertex="1" parent="1">
          <mxGeometry x="197" y="1285" width="216" height="40" as="geometry" />
        </mxCell>
        <mxCell id="d6DQ8E3kw1Y6hHntC6a_-16" style="edgeStyle=orthogonalEdgeStyle;orthogonalLoop=1;jettySize=auto;html=1;exitX=0.5;exitY=1;exitDx=0;exitDy=0;curved=1;endArrow=none;endFill=0;" edge="1" parent="1" source="d6DQ8E3kw1Y6hHntC6a_-4" target="d6DQ8E3kw1Y6hHntC6a_-7">
          <mxGeometry relative="1" as="geometry" />
        </mxCell>
        <mxCell id="d6DQ8E3kw1Y6hHntC6a_-4" value="Kaggle" style="rounded=1;whiteSpace=wrap;html=1;fontSize=14;fontColor=#ffffff;fillColor=#00648f;shadow=1;strokeColor=default;" vertex="1" parent="1">
          <mxGeometry x="197" y="1335" width="216" height="40" as="geometry" />
        </mxCell>
        <mxCell id="d6DQ8E3kw1Y6hHntC6a_-6" value="Data Sources" style="text;html=1;strokeColor=none;fillColor=none;align=center;verticalAlign=middle;whiteSpace=wrap;rounded=0;fontStyle=1;fontFamily=Courier New;fontSize=16;" vertex="1" parent="1">
          <mxGeometry x="248" y="1150" width="143" height="30" as="geometry" />
        </mxCell>
        <mxCell id="d6DQ8E3kw1Y6hHntC6a_-7" value="Principal Component Analysis (PCA)" style="rounded=1;whiteSpace=wrap;html=1;fontSize=14;fontColor=#ffffff;fillColor=#00648f;shadow=1;strokeColor=default;" vertex="1" parent="1">
          <mxGeometry x="391" y="1490" width="216" height="40" as="geometry" />
        </mxCell>
        <mxCell id="d6DQ8E3kw1Y6hHntC6a_-8" value="&lt;i&gt;Dimensionality&lt;/i&gt; &amp;amp; Numerosity Reduction" style="rounded=1;whiteSpace=wrap;html=1;fontSize=14;fontColor=#ffffff;fillColor=#00648f;shadow=1;strokeColor=default;" vertex="1" parent="1">
          <mxGeometry x="391" y="1540" width="216" height="40" as="geometry" />
        </mxCell>
        <mxCell id="d6DQ8E3kw1Y6hHntC6a_-9" value="Normalization" style="rounded=1;whiteSpace=wrap;html=1;fontSize=14;fontColor=#ffffff;fillColor=#00648f;shadow=1;strokeColor=default;" vertex="1" parent="1">
          <mxGeometry x="391" y="1590" width="216" height="40" as="geometry" />
        </mxCell>
        <mxCell id="d6DQ8E3kw1Y6hHntC6a_-10" value="Data Scrubbing, Handling Missing Values" style="rounded=1;whiteSpace=wrap;html=1;fontSize=14;fontColor=#ffffff;fillColor=#00648f;shadow=1;strokeColor=default;" vertex="1" parent="1">
          <mxGeometry x="391" y="1640" width="216" height="40" as="geometry" />
        </mxCell>
        <mxCell id="d6DQ8E3kw1Y6hHntC6a_-11" value="Unbiased Estimators" style="rounded=1;whiteSpace=wrap;html=1;fontSize=14;fontColor=#ffffff;fillColor=#00648f;shadow=1;strokeColor=default;" vertex="1" parent="1">
          <mxGeometry x="391" y="1690" width="216" height="40" as="geometry" />
        </mxCell>
        <mxCell id="d6DQ8E3kw1Y6hHntC6a_-12" value="Binning Sparse Values" style="rounded=1;whiteSpace=wrap;html=1;fontSize=14;fontColor=#ffffff;fillColor=#00648f;shadow=1;strokeColor=default;" vertex="1" parent="1">
          <mxGeometry x="391" y="1740" width="216" height="40" as="geometry" />
        </mxCell>
        <mxCell id="d6DQ8E3kw1Y6hHntC6a_-13" value="Feature Extraction" style="rounded=1;whiteSpace=wrap;html=1;fontSize=14;fontColor=#ffffff;fillColor=#00648f;shadow=1;strokeColor=default;" vertex="1" parent="1">
          <mxGeometry x="391" y="1790" width="216" height="40" as="geometry" />
        </mxCell>
        <mxCell id="d6DQ8E3kw1Y6hHntC6a_-14" value="Denoising" style="rounded=1;whiteSpace=wrap;html=1;fontSize=14;fontColor=#ffffff;fillColor=#00648f;shadow=1;strokeColor=default;" vertex="1" parent="1">
          <mxGeometry x="391" y="1840" width="216" height="40" as="geometry" />
        </mxCell>
        <mxCell id="d6DQ8E3kw1Y6hHntC6a_-21" style="edgeStyle=orthogonalEdgeStyle;orthogonalLoop=1;jettySize=auto;html=1;exitX=0.5;exitY=1;exitDx=0;exitDy=0;curved=1;dashed=1;endArrow=none;endFill=0;" edge="1" parent="1" source="d6DQ8E3kw1Y6hHntC6a_-15" target="d6DQ8E3kw1Y6hHntC6a_-19">
          <mxGeometry relative="1" as="geometry" />
        </mxCell>
        <mxCell id="d6DQ8E3kw1Y6hHntC6a_-22" style="edgeStyle=orthogonalEdgeStyle;orthogonalLoop=1;jettySize=auto;html=1;exitX=0.5;exitY=1;exitDx=0;exitDy=0;curved=1;dashed=1;endArrow=none;endFill=0;" edge="1" parent="1" source="d6DQ8E3kw1Y6hHntC6a_-15" target="d6DQ8E3kw1Y6hHntC6a_-20">
          <mxGeometry relative="1" as="geometry" />
        </mxCell>
        <mxCell id="d6DQ8E3kw1Y6hHntC6a_-15" value="Sampling" style="rounded=1;whiteSpace=wrap;html=1;fontSize=14;fontColor=#ffffff;fillColor=#00648f;shadow=1;strokeColor=default;" vertex="1" parent="1">
          <mxGeometry x="391" y="1890" width="216" height="40" as="geometry" />
        </mxCell>
        <mxCell id="d6DQ8E3kw1Y6hHntC6a_-18" value="Exploratory Data Analysis / Data Munging / Wrangling" style="text;html=1;strokeColor=none;fillColor=none;align=center;verticalAlign=middle;whiteSpace=wrap;rounded=0;fontStyle=1;fontFamily=Courier New;fontSize=16;" vertex="1" parent="1">
          <mxGeometry x="210" y="1440" width="259" height="40" as="geometry" />
        </mxCell>
        <mxCell id="d6DQ8E3kw1Y6hHntC6a_-19" value="Data Scientist" style="text;html=1;strokeColor=none;fillColor=none;align=center;verticalAlign=middle;whiteSpace=wrap;rounded=0;fontStyle=1;fontFamily=Courier New;fontSize=16;" vertex="1" parent="1">
          <mxGeometry x="311" y="2060" width="160" height="40" as="geometry" />
        </mxCell>
        <mxCell id="d6DQ8E3kw1Y6hHntC6a_-20" value="Data Engineer" style="text;html=1;strokeColor=none;fillColor=none;align=center;verticalAlign=middle;whiteSpace=wrap;rounded=0;fontStyle=1;fontFamily=Courier New;fontSize=16;" vertex="1" parent="1">
          <mxGeometry x="529" y="2060" width="160" height="40" as="geometry" />
        </mxCell>
      </root>
    </mxGraphModel>
  </diagram>
</mxfile>
